<?xml version="1.0" encoding="utf-8"?>
<!-- Generator: Adobe Illustrator 20.0.0, SVG Export Plug-In . SVG Version: 6.00 Build 0)  -->
<svg version="1.1" id="Layer_1" xmlns="http://www.w3.org/2000/svg" xmlns:xlink="http://www.w3.org/1999/xlink" x="0px" y="0px"
	 viewBox="0 0 269.5 961.8" style="enable-background:new 0 0 269.5 961.8;" xml:space="preserve">
<title>Asset 2</title>
<g id="Layer_2">
	<g id="레이어_1">
		<path id="_Path_" d="M224.3,903.9c0,0,2-17.7,2-35.5v-17.7c0,0,27.6-39.4,29.5-98.5s0-157.6,3.9-187.1s13.8-65,7.9-104.4
			s-31.5-80.8-59.1-114.2s-35.4-53.2-31.5-76.8s11.8-35.4,11.8-35.4s15.8,5.9,33.5,2s21.7-11.9,19.7-29.6s0-25.6,3.9-31.5
			s11.8-5.9,13.8-11.8s-5.9-13.8-13.8-27.6s-11.8-17.7-9.9-43.3s-8.8-50.8-28.3-70.8C192.9,6.3,146.9-6.8,98.2,3.9
			C60.9,12,32.2,44,28.3,71.6s4.9,60.3,16.7,87.9c14.6,34,32.5,62,18.5,100.1c-20,54.1-49.7,94.3-51.8,155.1
			c-1.8,50.3,6.9,99.6,18.9,147.8c11.8,47.2,20,95.9,16.8,144.5c-1.5,23.1-6.1,46.7-18.8,66.5c-12.3,19.2-22.2,35.8-26.1,58.9
			c-5.6,33-0.8,55.9,5.2,71.7s19,57.9,19,57.9h194.5C221.1,961.8,222.3,921.7,224.3,903.9z"/>
	</g>
</g>
</svg>
