<svg xmlns="http://www.w3.org/2000/svg" viewBox="0 0 269.48 961.83"><title>Asset 1</title><g id="Layer_2" data-name="Layer 2"><g id="Layer_1-2" data-name="Layer 1"><g id="Layer_2-2" data-name="Layer 2"><g id="레이어_1" data-name="레이어 1"><path id="_Path_" data-name=" Path " d="M45.2,903.93s-2-17.73-2-35.45V850.76s-27.57-39.39-29.54-98.48,0-157.56-3.94-187.1-13.79-65-7.88-104.38S33.38,380,61,346.56s35.45-53.18,31.51-76.81S80.65,234.3,80.65,234.3s-15.76,5.91-33.48,2-21.66-11.82-19.7-29.54,0-25.6-3.94-31.51-11.81-6-13.78-11.86,5.91-13.79,13.79-27.57,11.82-17.73,9.85-43.33,8.83-50.75,28.34-70.82C76.61,6.35,122.57-6.78,171.25,3.86c37.36,8.17,66,40.13,69.93,67.7s-4.94,60.32-16.75,87.89c-14.57,34-32.5,62-18.46,100.05,20,54.1,49.72,94.33,51.84,155.09,1.75,50.31-6.89,99.61-18.9,147.83-11.77,47.24-20,95.91-16.82,144.49,1.53,23.1,6.07,46.73,18.78,66.48,12.32,19.16,22.22,35.78,26.14,58.88,5.59,33,.75,55.9-5.16,71.66s-19,57.9-19,57.9H48.32S47.17,921.66,45.2,903.93Z"/></g></g></g></g></svg>