<svg xmlns="http://www.w3.org/2000/svg" viewBox="0 0 269.45 961.84"><defs><style>.cls-1{fill:#4f4d48;}</style></defs><title>Asset 2</title><g id="Layer_2" data-name="Layer 2"><g id="레이어_1" data-name="레이어 1"><path id="_Path_" data-name="&lt;Path&gt;" class="cls-1" d="M224.27,903.93s2-17.73,2-35.45V850.76s27.57-39.39,29.54-98.48,0-157.56,3.94-187.1,13.79-65,7.88-104.38S236.09,380,208.52,346.56,173.07,293.38,177,269.75s11.82-35.45,11.82-35.45,15.76,5.91,33.48,2S244,224.45,242,206.72s0-25.6,3.94-31.51,11.82-5.91,13.79-11.82-5.91-13.79-13.79-27.57-11.82-17.73-9.85-43.33-8.84-50.75-28.34-70.82C192.87,6.35,146.91-6.78,98.23,3.86,60.87,12,32.24,44,28.3,71.56S33.23,131.88,45,159.46c14.57,34,32.5,62,18.46,100.05-20,54.1-49.72,94.33-51.84,155.09-1.75,50.31,6.89,99.61,18.9,147.83,11.77,47.24,20,95.91,16.82,144.49-1.53,23.1-6.08,46.73-18.78,66.48C16.29,792.55,6.39,809.17,2.47,832.27c-5.59,32.95-.75,55.9,5.16,71.66s19,57.9,19,57.9H221.15S222.3,921.66,224.27,903.93Z"/></g></g></svg>